<svg xmlns="http://www.w3.org/2000/svg" viewBox="0 0 164.84 41.06"><defs><style>.cls-1{fill:#2b0d0d;}.cls-2{fill:#d6ccc4;}.cls-3{fill:#d10d0d;}</style></defs><title>client-logo2</title><g id="Ebene_2" data-name="Ebene 2"><g id="Ebene_2-2" data-name="Ebene 2"><path class="cls-1" d="M18.66,31.74a9.33,9.33,0,0,1-9.33,9.33A9.44,9.44,0,0,1,0,31.74C-.29,23,8.46,6.42,13.62,6.42,11.53,28.1,18.66,22.39,18.66,31.74Z"/><path d="M32.49,13.55a4.15,4.15,0,0,1-4.15,4.15,4.2,4.2,0,0,1-4.15-4.15C24.07,9.68,28,2.3,30.25,2.3,29.32,11.93,32.49,9.4,32.49,13.55Z"/><path class="cls-2" d="M26.73,12.81A4.72,4.72,0,0,1,22,17.53a4.78,4.78,0,0,1-4.72-4.72C17.14,8.4,21.57,0,24.17,0,23.12,11,26.73,8.08,26.73,12.81Z"/><path class="cls-3" d="M46.84,39a10.87,10.87,0,0,1-4.27-.82,9.26,9.26,0,0,1-3.34-2.37A11.07,11.07,0,0,1,37.05,32a15.59,15.59,0,0,1-.79-5.12,15,15,0,0,1,.8-5.07,11.21,11.21,0,0,1,2.23-3.82,9.63,9.63,0,0,1,3.41-2.41,10.92,10.92,0,0,1,4.3-.84,9.36,9.36,0,0,1,2.23.25,9.23,9.23,0,0,1,1.86.66,8.49,8.49,0,0,1,1.5.93,10.2,10.2,0,0,1,1.16,1.05l-1.64,1.93A8.5,8.5,0,0,0,50,17.94a6.14,6.14,0,0,0-3-.64,7.57,7.57,0,0,0-3.21.66,6.73,6.73,0,0,0-2.43,1.89,9,9,0,0,0-1.55,3,13,13,0,0,0-.55,3.93,14.14,14.14,0,0,0,.52,4,8.84,8.84,0,0,0,1.5,3,6.62,6.62,0,0,0,2.43,1.93,7.78,7.78,0,0,0,3.34.68A7.46,7.46,0,0,0,49.5,36a5.16,5.16,0,0,0,1.84-1V28.86h-5V26.4H54v9.86a8.8,8.8,0,0,1-3,1.95A11,11,0,0,1,46.84,39Z"/><path class="cls-3" d="M66.12,39a7.81,7.81,0,0,1-3.05-.61,7.5,7.5,0,0,1-2.55-1.77,8.58,8.58,0,0,1-1.77-2.86,10.49,10.49,0,0,1-.66-3.84A10.61,10.61,0,0,1,58.74,26a8.81,8.81,0,0,1,1.77-2.87,7.41,7.41,0,0,1,2.55-1.79,8,8,0,0,1,6.11,0,7.41,7.41,0,0,1,2.55,1.79A8.83,8.83,0,0,1,73.49,26a10.63,10.63,0,0,1,.66,3.88,10.52,10.52,0,0,1-.66,3.84,8.61,8.61,0,0,1-1.77,2.86,7.5,7.5,0,0,1-2.55,1.77A7.81,7.81,0,0,1,66.12,39Zm0-2.43a4.35,4.35,0,0,0,2-.48,4.67,4.67,0,0,0,1.59-1.36,6.43,6.43,0,0,0,1-2.09,9.61,9.61,0,0,0,.36-2.71,9.8,9.8,0,0,0-.36-2.73,6.65,6.65,0,0,0-1-2.12,4.6,4.6,0,0,0-1.59-1.37,4.53,4.53,0,0,0-4.07,0A4.59,4.59,0,0,0,62.49,25a6.63,6.63,0,0,0-1,2.13,9.78,9.78,0,0,0-.36,2.73,9.6,9.6,0,0,0,.36,2.71,6.41,6.41,0,0,0,1,2.09,4.66,4.66,0,0,0,1.59,1.36A4.35,4.35,0,0,0,66.12,36.54Z"/><path class="cls-3" d="M83.58,39a5.65,5.65,0,0,1-2.34-.43,4,4,0,0,1-1.54-1.18,4.58,4.58,0,0,1-.84-1.82,10.36,10.36,0,0,1-.25-2.36V23.58H76V21.36l2.71-.18.36-4.86h2.46v4.86h4.68v2.39H81.58v9.64a4.42,4.42,0,0,0,.59,2.48,2.33,2.33,0,0,0,2.09.88,3.91,3.91,0,0,0,1-.14,7.51,7.51,0,0,0,1-.32l.57,2.21a15.64,15.64,0,0,1-1.55.45A7.33,7.33,0,0,1,83.58,39Z"/><path class="cls-3" d="M104.18,39a8.49,8.49,0,0,1-3.21-.61,7.2,7.2,0,0,1-2.59-1.77,8.29,8.29,0,0,1-1.71-2.86A11,11,0,0,1,96,29.9,10.38,10.38,0,0,1,96.72,26a8.72,8.72,0,0,1,1.82-2.87,7.59,7.59,0,0,1,2.66-1.79,8.53,8.53,0,0,1,3.2-.61,6.5,6.5,0,0,1,2.93.61,9.93,9.93,0,0,1,2.14,1.43L108,24.72a7.42,7.42,0,0,0-1.59-1.11,4.07,4.07,0,0,0-1.87-.43A4.88,4.88,0,0,0,100.61,25a6.81,6.81,0,0,0-1.13,2.13,8.59,8.59,0,0,0-.41,2.73,8.78,8.78,0,0,0,.39,2.71,6.55,6.55,0,0,0,1.09,2.09,4.81,4.81,0,0,0,1.7,1.36,5,5,0,0,0,2.18.48,4.85,4.85,0,0,0,2.23-.52,9,9,0,0,0,1.84-1.23l1.29,2a9.29,9.29,0,0,1-2.61,1.62A7.78,7.78,0,0,1,104.18,39Z"/><path class="cls-3" d="M113.6,13.12h2.93V20l-.11,3.57a16.3,16.3,0,0,1,2.61-2,5.92,5.92,0,0,1,3.18-.84,4.66,4.66,0,0,1,4,1.71,8.48,8.48,0,0,1,1.27,5.07v11h-2.93V27.93a6.21,6.21,0,0,0-.79-3.55,2.87,2.87,0,0,0-2.5-1.09,4.28,4.28,0,0,0-2.39.68,15.57,15.57,0,0,0-2.36,2V38.54H113.6Z"/><path class="cls-3" d="M139.78,39a7.82,7.82,0,0,1-3.05-.61,7.5,7.5,0,0,1-2.55-1.77,8.59,8.59,0,0,1-1.77-2.86,10.51,10.51,0,0,1-.66-3.84A10.62,10.62,0,0,1,132.4,26a8.81,8.81,0,0,1,1.77-2.87,7.4,7.4,0,0,1,2.55-1.79,8,8,0,0,1,6.11,0,7.41,7.41,0,0,1,2.55,1.79A8.84,8.84,0,0,1,147.15,26a10.62,10.62,0,0,1,.66,3.88,10.51,10.51,0,0,1-.66,3.84,8.62,8.62,0,0,1-1.77,2.86,7.51,7.51,0,0,1-2.55,1.77A7.82,7.82,0,0,1,139.78,39Zm0-2.43a4.35,4.35,0,0,0,2-.48,4.69,4.69,0,0,0,1.59-1.36,6.46,6.46,0,0,0,1-2.09,9.63,9.63,0,0,0,.36-2.71,9.82,9.82,0,0,0-.36-2.73,6.68,6.68,0,0,0-1-2.12,4.61,4.61,0,0,0-1.59-1.37,4.54,4.54,0,0,0-4.07,0A4.59,4.59,0,0,0,136.15,25a6.66,6.66,0,0,0-1,2.13,9.78,9.78,0,0,0-.36,2.73,9.6,9.6,0,0,0,.36,2.71,6.44,6.44,0,0,0,1,2.09,4.67,4.67,0,0,0,1.59,1.36A4.35,4.35,0,0,0,139.78,36.54Z"/><path class="cls-3" d="M159.24,39a8.48,8.48,0,0,1-3.21-.61,7.2,7.2,0,0,1-2.59-1.77,8.28,8.28,0,0,1-1.71-2.86,11,11,0,0,1-.62-3.84,10.36,10.36,0,0,1,.68-3.87,8.71,8.71,0,0,1,1.82-2.87,7.6,7.6,0,0,1,2.66-1.79,8.53,8.53,0,0,1,3.2-.61,6.49,6.49,0,0,1,2.93.61,10,10,0,0,1,2.14,1.43L163,24.72a7.43,7.43,0,0,0-1.59-1.11,4.07,4.07,0,0,0-1.87-.43,4.93,4.93,0,0,0-2.18.48A4.88,4.88,0,0,0,155.67,25a6.81,6.81,0,0,0-1.12,2.13,8.61,8.61,0,0,0-.41,2.73,8.76,8.76,0,0,0,.39,2.71,6.55,6.55,0,0,0,1.09,2.09,4.8,4.8,0,0,0,1.7,1.36,5,5,0,0,0,2.18.48,4.84,4.84,0,0,0,2.23-.52,9,9,0,0,0,1.84-1.23l1.29,2a9.31,9.31,0,0,1-2.61,1.62A7.78,7.78,0,0,1,159.24,39Z"/><path class="cls-1" d="M46.84,39a10.87,10.87,0,0,1-4.27-.82,9.26,9.26,0,0,1-3.34-2.37A11.07,11.07,0,0,1,37.05,32a15.59,15.59,0,0,1-.79-5.12,15,15,0,0,1,.8-5.07,11.21,11.21,0,0,1,2.23-3.82,9.63,9.63,0,0,1,3.41-2.41,10.92,10.92,0,0,1,4.3-.84,9.36,9.36,0,0,1,2.23.25,9.23,9.23,0,0,1,1.86.66,8.49,8.49,0,0,1,1.5.93,10.2,10.2,0,0,1,1.16,1.05l-1.64,1.93A8.5,8.5,0,0,0,50,17.94a6.14,6.14,0,0,0-3-.64,7.57,7.57,0,0,0-3.21.66,6.73,6.73,0,0,0-2.43,1.89,9,9,0,0,0-1.55,3,13,13,0,0,0-.55,3.93,14.14,14.14,0,0,0,.52,4,8.84,8.84,0,0,0,1.5,3,6.62,6.62,0,0,0,2.43,1.93,7.78,7.78,0,0,0,3.34.68A7.46,7.46,0,0,0,49.5,36a5.16,5.16,0,0,0,1.84-1V28.86h-5V26.4H54v9.86a8.8,8.8,0,0,1-3,1.95A11,11,0,0,1,46.84,39Z"/><path class="cls-1" d="M66.12,39a7.81,7.81,0,0,1-3.05-.61,7.5,7.5,0,0,1-2.55-1.77,8.58,8.58,0,0,1-1.77-2.86,10.49,10.49,0,0,1-.66-3.84A10.61,10.61,0,0,1,58.74,26a8.81,8.81,0,0,1,1.77-2.87,7.41,7.41,0,0,1,2.55-1.79,8,8,0,0,1,6.11,0,7.41,7.41,0,0,1,2.55,1.79A8.83,8.83,0,0,1,73.49,26a10.63,10.63,0,0,1,.66,3.88,10.52,10.52,0,0,1-.66,3.84,8.61,8.61,0,0,1-1.77,2.86,7.5,7.5,0,0,1-2.55,1.77A7.81,7.81,0,0,1,66.12,39Zm0-2.43a4.35,4.35,0,0,0,2-.48,4.67,4.67,0,0,0,1.59-1.36,6.43,6.43,0,0,0,1-2.09,9.61,9.61,0,0,0,.36-2.71,9.8,9.8,0,0,0-.36-2.73,6.65,6.65,0,0,0-1-2.12,4.6,4.6,0,0,0-1.59-1.37,4.53,4.53,0,0,0-4.07,0A4.59,4.59,0,0,0,62.49,25a6.63,6.63,0,0,0-1,2.13,9.78,9.78,0,0,0-.36,2.73,9.6,9.6,0,0,0,.36,2.71,6.41,6.41,0,0,0,1,2.09,4.66,4.66,0,0,0,1.59,1.36A4.35,4.35,0,0,0,66.12,36.54Z"/><path class="cls-1" d="M83.58,39a5.65,5.65,0,0,1-2.34-.43,4,4,0,0,1-1.54-1.18,4.58,4.58,0,0,1-.84-1.82,10.36,10.36,0,0,1-.25-2.36V23.58H76V21.36l2.71-.18.36-4.86h2.46v4.86h4.68v2.39H81.58v9.64a4.42,4.42,0,0,0,.59,2.48,2.33,2.33,0,0,0,2.09.88,3.91,3.91,0,0,0,1-.14,7.51,7.51,0,0,0,1-.32l.57,2.21a15.64,15.64,0,0,1-1.55.45A7.33,7.33,0,0,1,83.58,39Z"/><path class="cls-1" d="M104.18,39a8.49,8.49,0,0,1-3.21-.61,7.2,7.2,0,0,1-2.59-1.77,8.29,8.29,0,0,1-1.71-2.86A11,11,0,0,1,96,29.9,10.38,10.38,0,0,1,96.72,26a8.72,8.72,0,0,1,1.82-2.87,7.59,7.59,0,0,1,2.66-1.79,8.53,8.53,0,0,1,3.2-.61,6.5,6.5,0,0,1,2.93.61,9.93,9.93,0,0,1,2.14,1.43L108,24.72a7.42,7.42,0,0,0-1.59-1.11,4.07,4.07,0,0,0-1.87-.43A4.88,4.88,0,0,0,100.61,25a6.81,6.81,0,0,0-1.13,2.13,8.59,8.59,0,0,0-.41,2.73,8.78,8.78,0,0,0,.39,2.71,6.55,6.55,0,0,0,1.09,2.09,4.81,4.81,0,0,0,1.7,1.36,5,5,0,0,0,2.18.48,4.85,4.85,0,0,0,2.23-.52,9,9,0,0,0,1.84-1.23l1.29,2a9.29,9.29,0,0,1-2.61,1.62A7.78,7.78,0,0,1,104.18,39Z"/><path class="cls-1" d="M113.6,13.12h2.93V20l-.11,3.57a16.3,16.3,0,0,1,2.61-2,5.92,5.92,0,0,1,3.18-.84,4.66,4.66,0,0,1,4,1.71,8.48,8.48,0,0,1,1.27,5.07v11h-2.93V27.93a6.21,6.21,0,0,0-.79-3.55,2.87,2.87,0,0,0-2.5-1.09,4.28,4.28,0,0,0-2.39.68,15.57,15.57,0,0,0-2.36,2V38.54H113.6Z"/><path class="cls-1" d="M139.78,39a7.82,7.82,0,0,1-3.05-.61,7.5,7.5,0,0,1-2.55-1.77,8.59,8.59,0,0,1-1.77-2.86,10.51,10.51,0,0,1-.66-3.84A10.62,10.62,0,0,1,132.4,26a8.81,8.81,0,0,1,1.77-2.87,7.4,7.4,0,0,1,2.55-1.79,8,8,0,0,1,6.11,0,7.41,7.41,0,0,1,2.55,1.79A8.84,8.84,0,0,1,147.15,26a10.62,10.62,0,0,1,.66,3.88,10.51,10.51,0,0,1-.66,3.84,8.62,8.62,0,0,1-1.77,2.86,7.51,7.51,0,0,1-2.55,1.77A7.82,7.82,0,0,1,139.78,39Zm0-2.43a4.35,4.35,0,0,0,2-.48,4.69,4.69,0,0,0,1.59-1.36,6.46,6.46,0,0,0,1-2.09,9.63,9.63,0,0,0,.36-2.71,9.82,9.82,0,0,0-.36-2.73,6.68,6.68,0,0,0-1-2.12,4.61,4.61,0,0,0-1.59-1.37,4.54,4.54,0,0,0-4.07,0A4.59,4.59,0,0,0,136.15,25a6.66,6.66,0,0,0-1,2.13,9.78,9.78,0,0,0-.36,2.73,9.6,9.6,0,0,0,.36,2.71,6.44,6.44,0,0,0,1,2.09,4.67,4.67,0,0,0,1.59,1.36A4.35,4.35,0,0,0,139.78,36.54Z"/><path class="cls-1" d="M159.24,39a8.48,8.48,0,0,1-3.21-.61,7.2,7.2,0,0,1-2.59-1.77,8.28,8.28,0,0,1-1.71-2.86,11,11,0,0,1-.62-3.84,10.36,10.36,0,0,1,.68-3.87,8.71,8.71,0,0,1,1.82-2.87,7.6,7.6,0,0,1,2.66-1.79,8.53,8.53,0,0,1,3.2-.61,6.49,6.49,0,0,1,2.93.61,10,10,0,0,1,2.14,1.43L163,24.72a7.43,7.43,0,0,0-1.59-1.11,4.07,4.07,0,0,0-1.87-.43,4.93,4.93,0,0,0-2.18.48A4.88,4.88,0,0,0,155.67,25a6.81,6.81,0,0,0-1.12,2.13,8.61,8.61,0,0,0-.41,2.73,8.76,8.76,0,0,0,.39,2.71,6.55,6.55,0,0,0,1.09,2.09,4.8,4.8,0,0,0,1.7,1.36,5,5,0,0,0,2.18.48,4.84,4.84,0,0,0,2.23-.52,9,9,0,0,0,1.84-1.23l1.29,2a9.31,9.31,0,0,1-2.61,1.62A7.78,7.78,0,0,1,159.24,39Z"/></g></g></svg>